<?xml version="1.0" encoding="UTF-8"?>
<svg version="1.1" xmlns="http://www.w3.org/2000/svg" width="267" height="151">
<path d="M0 0 C88.11 0 176.22 0 267 0 C267 49.83 267 99.66 267 151 C178.89 151 90.78 151 0 151 C0 101.17 0 51.34 0 0 Z " fill="#FEFEFE" transform="translate(0,0)"/>
<path d="M0 0 C72.6 0 145.2 0 220 0 C220 13.86 220 27.72 220 42 C147.4 42 74.8 42 0 42 C0 28.14 0 14.28 0 0 Z " fill="#36AE72" transform="translate(23,95)"/>
<path d="M0 0 C1.65 0 3.3 0 5 0 C5 0.99 5 1.98 5 3 C7.31 3.33 9.62 3.66 12 4 C12 3.01 12 2.02 12 1 C13.98 1.33 15.96 1.66 18 2 C17.67 3.32 17.34 4.64 17 6 C17.61488281 6.03738281 18.22976562 6.07476563 18.86328125 6.11328125 C19.67152344 6.17902344 20.47976562 6.24476562 21.3125 6.3125 C22.11300781 6.37050781 22.91351563 6.42851562 23.73828125 6.48828125 C26.36272334 7.08206694 27.30820672 7.95780294 29 10 C28.67 10.99 28.34 11.98 28 13 C28.87483915 15.16715557 28.87483915 15.16715557 30 17 C27.25 18.1875 27.25 18.1875 24 19 C21.625 17.75 21.625 17.75 20 16 C20 15.34 20 14.68 20 14 C11.63011084 10.44913793 4.60661076 8.84846658 -4.20703125 11.71875 C-10.90793591 14.69123543 -15.26894526 19.50888748 -17.9375 26.3125 C-19.42115956 31.31553805 -18.87997213 35.92160664 -18 41 C-18.08701172 39.87464844 -18.08701172 39.87464844 -18.17578125 38.7265625 C-18.50396506 31.28147825 -17.78107421 25.00150631 -13 19 C-10.828125 18.23046875 -10.828125 18.23046875 -9 18 C-9.3609375 18.58007812 -9.721875 19.16015625 -10.09375 19.7578125 C-13.82348162 25.93070005 -13.82348162 25.93070005 -14 33 C-13.649375 33.639375 -13.29875 34.27875 -12.9375 34.9375 C-12 37 -12 37 -13 44 C-7.39 44 -1.78 44 4 44 C2.02 38.555 2.02 38.555 0 33 C-1.98 33 -3.96 33 -6 33 C-6.66 31.68 -7.32 30.36 -8 29 C-7.360625 28.401875 -6.72125 27.80375 -6.0625 27.1875 C-3.79689611 25.09189663 -3.79689611 25.09189663 -3 22 C-2.34 22 -1.68 22 -1 22 C-1 21.01 -1 20.02 -1 19 C0.65 19 2.3 19 4 19 C3.32453125 18.86722656 2.6490625 18.73445313 1.953125 18.59765625 C1.06109375 18.42105469 0.1690625 18.24445312 -0.75 18.0625 C-2.07257812 17.80146484 -2.07257812 17.80146484 -3.421875 17.53515625 C-5.63235053 17.07631512 -7.81512068 16.56663926 -10 16 C-3.71822722 12.32798251 1.63279075 9.58816547 9 11 C13.77521364 12.54184014 17.16907536 13.75361304 20 18 C20.99 18.33 21.98 18.66 23 19 C24.5625 21.8125 24.5625 21.8125 26 25 C26.5878125 25.928125 26.5878125 25.928125 27.1875 26.875 C28.47326303 30.23776484 28.11934799 33.4195602 28 37 C28.66 36.67 29.32 36.34 30 36 C31.98 36 33.96 36 36 36 C36 46.23 36 56.46 36 67 C34.02 67 32.04 67 30 67 C29.67 62.71 29.34 58.42 29 54 C28.34 54.99 27.68 55.98 27 57 C26.319375 57.28875 25.63875 57.5775 24.9375 57.875 C22.70909738 58.86943709 22.70909738 58.86943709 22.25 61.625 C22.1675 62.40875 22.085 63.1925 22 64 C20.02 64.495 20.02 64.495 18 65 C18 64.34 18 63.68 18 63 C15.36 63.33 12.72 63.66 10 64 C10 64.99 10 65.98 10 67 C8.35 67 6.7 67 5 67 C5 66.34 5 65.68 5 65 C3.02 65 1.04 65 -1 65 C-1.33 65.66 -1.66 66.32 -2 67 C-3.98 66.67 -5.96 66.34 -8 66 C-7.67 64.68 -7.34 63.36 -7 62 C-10.61973402 60.68373308 -13.09567131 60 -17 60 C-17.268125 59.071875 -17.53625 58.14375 -17.8125 57.1875 C-18.91148371 54.23759634 -19.62418561 52.94384814 -22 51 C-22.99 51.495 -22.99 51.495 -24 52 C-24.66 50.35 -25.32 48.7 -26 47 C-25.34 46.34 -24.68 45.68 -24 45 C-24.32198966 41.90073181 -24.32198966 41.90073181 -25 39 C-26.32 39 -27.64 39 -29 39 C-29 37.35 -29 35.7 -29 34 C-28.01 34 -27.02 34 -26 34 C-25.67 31.69 -25.34 29.38 -25 27 C-25.99 27 -26.98 27 -28 27 C-27.67 25.02 -27.34 23.04 -27 21 C-25.68 21 -24.36 21 -23 21 C-22.87625 20.113125 -22.7525 19.22625 -22.625 18.3125 C-22.05587264 15.29612498 -21.23385564 12.79673946 -20 10 C-19.4225 10.2475 -18.845 10.495 -18.25 10.75 C-15.84598377 11.28458426 -15.84598377 11.28458426 -13.875 9.3125 C-12.20303598 7.25041104 -11.04070323 5.42830755 -10 3 C-9.34 3 -8.68 3 -8 3 C-7.34 3.66 -6.68 4.32 -6 5 C-2.90073181 4.67801034 -2.90073181 4.67801034 0 4 C0 2.68 0 1.36 0 0 Z " fill="#FBFCFD" transform="translate(52,12)"/>
<path d="M0 0 C5.12282759 -0.09945752 10.24508354 -0.17174409 15.36865234 -0.21972656 C17.10866089 -0.23974522 18.84860299 -0.26696886 20.58837891 -0.30175781 C23.10075346 -0.35070952 25.61223275 -0.37306587 28.125 -0.390625 C28.89303955 -0.41127014 29.6610791 -0.43191528 30.45239258 -0.45318604 C37.55905607 -0.45608687 42.6446565 1.84946898 47.875 6.625 C51.11719859 11.77437423 52.47845858 16.60146433 51.62109375 22.69140625 C50.22985485 28.02581368 48.47417157 31.56633345 44 35 C39.19453178 37.74598184 35.18386399 39.1370276 29.671875 39.09765625 C28.87265625 39.09443359 28.0734375 39.09121094 27.25 39.08789062 C26.425 39.07951172 25.6 39.07113281 24.75 39.0625 C23.90953125 39.05798828 23.0690625 39.05347656 22.203125 39.04882812 C20.13538599 39.03707961 18.06768376 39.01914522 16 39 C16 43.62 16 48.24 16 53 C18.64 53 21.28 53 24 53 C24 55.31 24 57.62 24 60 C16.08 60 8.16 60 0 60 C0 57.69 0 55.38 0 53 C1.98 53 3.96 53 6 53 C6 37.82 6 22.64 6 7 C4.02 7 2.04 7 0 7 C0 4.69 0 2.38 0 0 Z " fill="#195293" transform="translate(191,16)"/>
<path d="M0 0 C1.65 0 3.3 0 5 0 C5 0.99 5 1.98 5 3 C7.31 3.33 9.62 3.66 12 4 C12 3.01 12 2.02 12 1 C13.98 1.33 15.96 1.66 18 2 C17.67 3.32 17.34 4.64 17 6 C17.61488281 6.03738281 18.22976562 6.07476563 18.86328125 6.11328125 C19.67152344 6.17902344 20.47976562 6.24476562 21.3125 6.3125 C22.11300781 6.37050781 22.91351563 6.42851562 23.73828125 6.48828125 C26.36272334 7.08206694 27.30820672 7.95780294 29 10 C28.67 10.99 28.34 11.98 28 13 C28.87483915 15.16715557 28.87483915 15.16715557 30 17 C27.25 18.1875 27.25 18.1875 24 19 C21.625 17.75 21.625 17.75 20 16 C20 15.34 20 14.68 20 14 C11.63011084 10.44913793 4.60661076 8.84846658 -4.20703125 11.71875 C-10.90793591 14.69123543 -15.26894526 19.50888748 -17.9375 26.3125 C-19.71762151 32.48499234 -19.03362361 38.22553661 -16.8125 44.1875 C-13.57873969 49.20540393 -10.18828723 54.44814631 -4.3203125 56.56640625 C3.66845846 58.05925739 11.9550971 58.36113037 19 54 C20.61792727 52.47228492 20.61792727 52.47228492 21.75 50.8125 C22.4925 49.884375 23.235 48.95625 24 48 C24.66 48 25.32 48 26 48 C26.20496094 47.30132812 26.40992188 46.60265625 26.62109375 45.8828125 C26.89050781 44.97273438 27.15992188 44.06265625 27.4375 43.125 C27.70433594 42.22007813 27.97117188 41.31515625 28.24609375 40.3828125 C29 38 29 38 30 36 C31.98 36 33.96 36 36 36 C36 46.23 36 56.46 36 67 C34.02 67 32.04 67 30 67 C29.67 62.71 29.34 58.42 29 54 C28.34 54.99 27.68 55.98 27 57 C26.319375 57.28875 25.63875 57.5775 24.9375 57.875 C22.70909738 58.86943709 22.70909738 58.86943709 22.25 61.625 C22.1675 62.40875 22.085 63.1925 22 64 C20.02 64.495 20.02 64.495 18 65 C18 64.34 18 63.68 18 63 C15.36 63.33 12.72 63.66 10 64 C10 64.99 10 65.98 10 67 C8.35 67 6.7 67 5 67 C5 66.34 5 65.68 5 65 C3.02 65 1.04 65 -1 65 C-1.33 65.66 -1.66 66.32 -2 67 C-3.98 66.67 -5.96 66.34 -8 66 C-7.67 64.68 -7.34 63.36 -7 62 C-10.61973402 60.68373308 -13.09567131 60 -17 60 C-17.268125 59.071875 -17.53625 58.14375 -17.8125 57.1875 C-18.91148371 54.23759634 -19.62418561 52.94384814 -22 51 C-22.99 51.495 -22.99 51.495 -24 52 C-24.66 50.35 -25.32 48.7 -26 47 C-25.34 46.34 -24.68 45.68 -24 45 C-24.32198966 41.90073181 -24.32198966 41.90073181 -25 39 C-26.32 39 -27.64 39 -29 39 C-29 37.35 -29 35.7 -29 34 C-28.01 34 -27.02 34 -26 34 C-25.67 31.69 -25.34 29.38 -25 27 C-25.99 27 -26.98 27 -28 27 C-27.67 25.02 -27.34 23.04 -27 21 C-25.68 21 -24.36 21 -23 21 C-22.87625 20.113125 -22.7525 19.22625 -22.625 18.3125 C-22.05587264 15.29612498 -21.23385564 12.79673946 -20 10 C-19.4225 10.2475 -18.845 10.495 -18.25 10.75 C-15.84598377 11.28458426 -15.84598377 11.28458426 -13.875 9.3125 C-12.20303598 7.25041104 -11.04070323 5.42830755 -10 3 C-9.34 3 -8.68 3 -8 3 C-7.34 3.66 -6.68 4.32 -6 5 C-2.90073181 4.67801034 -2.90073181 4.67801034 0 4 C0 2.68 0 1.36 0 0 Z " fill="#195293" transform="translate(52,12)"/>
<path d="M0 0 C2.375 2.67578125 2.375 2.67578125 4 5 C4.33 2.03 4.66 -0.94 5 -4 C7.31 -4 9.62 -4 12 -4 C12 3.59 12 11.18 12 19 C8.7 19 5.4 19 2 19 C1.525625 17.618125 1.05125 16.23625 0.5625 14.8125 C-1.53016287 10.20573522 -3.75161758 7.98527835 -8.30078125 5.8046875 C-15.7441111 3.58569191 -23.78391015 4.31494331 -31 7 C-31 7.66 -31 8.32 -31 9 C-31.99 9 -32.98 9 -34 9 C-35.6720218 12.1632845 -36.92221136 15.3821918 -38.125 18.75 C-38.65480469 20.22726563 -38.65480469 20.22726563 -39.1953125 21.734375 C-39.46085937 22.48203125 -39.72640625 23.2296875 -40 24 C-43.3 24 -46.6 24 -50 24 C-48.92892771 17.48431024 -47.8188075 12.402527 -44 7 C-43.62488281 6.40316406 -43.24976562 5.80632813 -42.86328125 5.19140625 C-33.09429543 -8.44997035 -13.19239551 -7.42072247 0 0 Z " fill="#195293" transform="translate(143,20)"/>
<path d="M0 0 C7.26 0 14.52 0 22 0 C22 2.31 22 4.62 22 7 C20.02 7 18.04 7 16 7 C16 22.18 16 37.36 16 53 C17.98 53 19.96 53 22 53 C22 55.31 22 57.62 22 60 C14.74 60 7.48 60 0 60 C0 57.69 0 55.38 0 53 C1.98 53 3.96 53 6 53 C6 37.82 6 22.64 6 7 C4.02 7 2.04 7 0 7 C0 4.69 0 2.38 0 0 Z " fill="#195293" transform="translate(162,16)"/>
<path d="M0 0 C3.3 0 6.6 0 10 0 C10.6708712 1.6232687 11.33657029 3.24867578 12 4.875 C12.556875 6.23238281 12.556875 6.23238281 13.125 7.6171875 C14 10 14 10 14 12 C14.639375 12.268125 15.27875 12.53625 15.9375 12.8125 C18 14 18 14 19 17 C25.62400308 19.7968013 33.88813439 20.56527827 40.66796875 17.984375 C45.89778298 15.15191444 49.70451171 12.57260885 51.6875 6.8125 C52.120625 5.554375 52.55375 4.29625 53 3 C55.97 3 58.94 3 62 3 C61.76677663 10.4631477 60.21543104 14.62583845 55 20 C47.59638012 26.87478989 39.76698398 29.61790754 29.6953125 29.28125 C20.85101801 28.3583671 12.92892953 24.333048 6.94921875 17.73828125 C2.59155557 11.99121822 0.91607711 7.12504421 0 0 Z " fill="#36AE72" transform="translate(93,48)"/>
<path d="M0 0 C3.2253351 1.48467806 4.00576653 2.1023998 6.0625 5.1875 C7.0525 5.5175 8.0425 5.8475 9.0625 6.1875 C10.625 9 10.625 9 12.0625 12.1875 C12.41570312 12.82558594 12.76890625 13.46367188 13.1328125 14.12109375 C15.36764402 19.08842936 14.45721134 24.69278171 12.6875 29.6875 C11.0625 33.1875 11.0625 33.1875 9.0625 34.1875 C9.206875 33.3625 9.35125 32.5375 9.5 31.6875 C9.7784375 29.955 9.7784375 29.955 10.0625 28.1875 C10.16949219 27.5378125 10.27648437 26.888125 10.38671875 26.21875 C11.01796469 21.9557904 11.02175486 18.45085493 10.0625 14.1875 C9.4025 14.1875 8.7425 14.1875 8.0625 14.1875 C7.7325 15.5075 7.4025 16.8275 7.0625 18.1875 C6.7325 16.8675 6.4025 15.5475 6.0625 14.1875 C3.09127247 15.3920517 1.40722323 16.42803164 0.0625 19.390625 C-0.67424598 21.64336752 -1.34574692 23.89265269 -1.9375 26.1875 C-2.5975 26.1875 -3.2575 26.1875 -3.9375 26.1875 C-4.9275 28.6625 -4.9275 28.6625 -5.9375 31.1875 C-7.2575 31.1875 -8.5775 31.1875 -9.9375 31.1875 C-11.2575 27.5575 -12.5775 23.9275 -13.9375 20.1875 C-15.9175 20.1875 -17.8975 20.1875 -19.9375 20.1875 C-20.5975 18.8675 -21.2575 17.5475 -21.9375 16.1875 C-21.298125 15.589375 -20.65875 14.99125 -20 14.375 C-17.73439611 12.27939663 -17.73439611 12.27939663 -16.9375 9.1875 C-16.2775 9.1875 -15.6175 9.1875 -14.9375 9.1875 C-14.9375 8.1975 -14.9375 7.2075 -14.9375 6.1875 C-13.2875 6.1875 -11.6375 6.1875 -9.9375 6.1875 C-10.61296875 6.05472656 -11.2884375 5.92195313 -11.984375 5.78515625 C-12.87640625 5.60855469 -13.7684375 5.43195312 -14.6875 5.25 C-15.56921875 5.07597656 -16.4509375 4.90195312 -17.359375 4.72265625 C-19.56985053 4.26381512 -21.75262068 3.75413926 -23.9375 3.1875 C-15.50159406 -1.7437185 -9.27954157 -3.8244756 0 0 Z " fill="#689FCB" transform="translate(65.9375,24.8125)"/>
<path d="M0 0 C2.866875 -0.061875 5.73375 -0.12375 8.6875 -0.1875 C10.02880981 -0.22846802 10.02880981 -0.22846802 11.3972168 -0.27026367 C16.05238343 -0.31881481 19.27174261 -0.13598839 23 3 C23 3.66 23 4.32 23 5 C23.66 5 24.32 5 25 5 C25.97600741 9.7739493 26.54585862 12.90828276 24.3125 17.375 C19.51480764 22.82102917 19.51480764 22.82102917 15.99145508 23.23730469 C13.56885538 23.29544096 11.17252776 23.26074625 8.75 23.1875 C5.8625 23.125625 2.975 23.06375 0 23 C0 15.41 0 7.82 0 0 Z " fill="#FEFEFE" transform="translate(207,24)"/>
<path d="M0 0 C4.87565897 0.81260983 8.57520121 1.70906819 12.6875 4.5625 C14.625 7.4375 14.625 7.4375 14.484375 9.54296875 C13.9375 11.75 13.9375 11.75 12.625 15.4375 C11.965 15.4375 11.305 15.4375 10.625 15.4375 C9.635 17.9125 9.635 17.9125 8.625 20.4375 C7.305 20.4375 5.985 20.4375 4.625 20.4375 C3.305 16.8075 1.985 13.1775 0.625 9.4375 C-1.355 9.4375 -3.335 9.4375 -5.375 9.4375 C-6.035 8.1175 -6.695 6.7975 -7.375 5.4375 C-3.12009804 0.5747549 -3.12009804 0.5747549 0 0 Z " fill="#548ECB" transform="translate(51.375,35.5625)"/>
<path d="M0 0 C0.10826289 2.4178712 0.18739789 4.83087556 0.25 7.25 C0.30027344 8.27287109 0.30027344 8.27287109 0.3515625 9.31640625 C0.41762967 12.71886553 0.2323677 14.66383086 -1.72265625 17.4921875 C-4.42331914 19.28027648 -5.52755227 19.36596709 -8.6875 18.875 C-9.47511719 18.76929688 -10.26273437 18.66359375 -11.07421875 18.5546875 C-11.70972656 18.37164062 -12.34523438 18.18859375 -13 18 C-13.33 17.34 -13.66 16.68 -14 16 C-11.42786866 14.38050989 -10.32330841 13.95591249 -7.25 14.375 C-6.5075 14.58125 -5.765 14.7875 -5 15 C-5 14.34 -5 13.68 -5 13 C-5.99 13.33 -6.98 13.66 -8 14 C-11.125 13 -11.125 13 -14 11 C-15.125 7.5625 -15.125 7.5625 -15 4 C-12.03535189 -1.78106382 -5.62321341 -0.34902704 0 0 Z " fill="#FAFCFB" transform="translate(128,112)"/>
<path d="M0 0 C7.59 0 15.18 0 23 0 C23.33 0.99 23.66 1.98 24 3 C20.7 3 17.4 3 14 3 C14.33 4.32 14.66 5.64 15 7 C22.17662737 7.69451233 25.86476766 6.41937028 31.8359375 2.41015625 C34 1 34 1 37 0 C36.52300119 4.29298926 34.20196975 6.28528652 31 9 C25.6963852 11.95778518 20.96084902 12.93202278 15 12 C10.22750962 10.35576745 6.18733186 7.98416483 3 4 C3 3.34 3 2.68 3 2 C2.01 1.67 1.02 1.34 0 1 C0 0.67 0 0.34 0 0 Z " fill="#1A5293" transform="translate(37,57)"/>
<path d="M0 0 C3.09244792 0.03255208 6.18489583 0.06510417 9.27734375 0.09765625 C9.27734375 4.71765625 9.27734375 9.33765625 9.27734375 14.09765625 C0.9765625 14.48828125 0.9765625 14.48828125 -1.72265625 14.09765625 C-3.98860552 12.01146914 -4.68684436 10.85865884 -4.83203125 7.7734375 C-4.7134375 6.99355469 -4.59484375 6.21367188 -4.47265625 5.41015625 C-4.364375 4.62253906 -4.25609375 3.83492188 -4.14453125 3.0234375 C-3.48280997 0.00280238 -3.18691929 0.11430844 0 0 Z " fill="#FEFEFE" transform="translate(167.72265625,111.90234375)"/>
<path d="M0 0 C4.53786224 2.26893112 5.94678157 4.09866534 9 8 C9.33 5.36 9.66 2.72 10 0 C11.32 0 12.64 0 14 0 C14 6.27 14 12.54 14 19 C10 18 10 18 8.4375 15.625 C7.963125 14.75875 7.48875 13.8925 7 13 C6.01 12.01 5.02 11.02 4 10 C3.67 12.97 3.34 15.94 3 19 C2.01 19 1.02 19 0 19 C0 12.73 0 6.46 0 0 Z " fill="#FEFEFE" transform="translate(90,107)"/>
<path d="M0 0 C0.66 0.33 1.32 0.66 2 1 C1.45859375 1.76183594 1.45859375 1.76183594 0.90625 2.5390625 C-1.9594656 6.78987397 -3.8437222 9.69660331 -3 15 C-2.649375 15.639375 -2.29875 16.27875 -1.9375 16.9375 C-0.49752134 20.10545305 -1.32180645 22.6706862 -2 26 C-2.33 26.66 -2.66 27.32 -3 28 C2.53064626 33.68427532 7.0506362 37.96146687 15.25 38.375 C21.56998715 38.22728745 26.84264554 35.89426246 31.5625 31.75 C32.036875 31.1725 32.51125 30.595 33 30 C33.66 30.33 34.32 30.66 35 31 C34.34 31.99 33.68 32.98 33 34 C32.34 34 31.68 34 31 34 C30.67 34.99 30.34 35.98 30 37 C23.39386435 41.2156271 16.56653418 40.69230937 9 40 C2.66569585 38.58904125 -1.67352094 34.12640794 -5.48046875 29.04296875 C-8.40428389 23.18782223 -8.05131132 17.33499852 -7 11 C-3.91473448 1.95736724 -3.91473448 1.95736724 0 0 Z " fill="#F6F8FA" transform="translate(41,30)"/>
<path d="M0 0 C2.25 0.984375 2.25 0.984375 4 2.25 C4.75 4.390625 4.75 4.390625 5 6.25 C-0.21413116 8.46600574 -3.56564666 8.31905312 -9 7.25 C-9.99 6.59 -10.98 5.93 -12 5.25 C-13.98395735 4.96657752 -15.96961687 4.68446777 -17.96484375 4.49609375 C-20.0402201 4.24513653 -21.98400731 3.79571614 -24 3.25 C-15.53744456 -1.6967965 -9.33634423 -3.7020891 0 0 Z " fill="#3DB177" transform="translate(66,24.75)"/>
<path d="M0 0 C3.4375 0.5 3.4375 0.5 5.375 1.6875 C6.76601983 4.06041618 6.65667317 5.79686424 6.4375 8.5 C1.9825 8.995 1.9825 8.995 -2.5625 9.5 C-1.139375 9.4690625 -1.139375 9.4690625 0.3125 9.4375 C3.4375 9.5 3.4375 9.5 5.4375 10.5 C4.7775 11.82 4.1175 13.14 3.4375 14.5 C-2.95905172 14.86206897 -2.95905172 14.86206897 -5.4375 13.375 C-7.07290601 10.64932332 -7.498818 8.68409977 -7.5625 5.5 C-5.49563395 1.53850674 -4.46566401 0.62675986 0 0 Z " fill="#EDF7F2" transform="translate(137.5625,111.5)"/>
<path d="M0 0 C0.66 0.33 1.32 0.66 2 1 C1.45859375 1.76183594 1.45859375 1.76183594 0.90625 2.5390625 C-1.9594656 6.78987397 -3.8437222 9.69660331 -3 15 C-2.649375 15.639375 -2.29875 16.27875 -1.9375 16.9375 C-0.50947183 20.07916198 -1.36473982 22.69664705 -2 26 C-2.99 26 -3.98 26 -5 26 C-7.47295676 19.97216789 -8.28970672 14.39446973 -5.94921875 8.234375 C-2.58812441 1.29406221 -2.58812441 1.29406221 0 0 Z " fill="#568FCB" transform="translate(41,30)"/>
<path d="M0 0 C2.475 0.495 2.475 0.495 5 1 C5.99 0.67 6.98 0.34 8 0 C8 1.65 8 3.3 8 5 C7.01 5 6.02 5 5 5 C4.67 7.97 4.34 10.94 4 14 C2.68 14 1.36 14 0 14 C0 9.38 0 4.76 0 0 Z " fill="#FEFEFE" transform="translate(146,112)"/>
<path d="M0 0 C1.65 0 3.3 0 5 0 C5 4.62 5 9.24 5 14 C3.35 14 1.7 14 0 14 C0 9.38 0 4.76 0 0 Z " fill="#EEF7F1" transform="translate(107,112)"/>
<path d="M0 0 C9.41002278 0.96355353 9.41002278 0.96355353 14 2 C13.67 2.66 13.34 3.32 13 4 C11.68 4 10.36 4 9 4 C9.66 4.33 10.32 4.66 11 5 C11 5.66 11 6.32 11 7 C6.17639811 7.19294408 2.50353262 6.75747614 -2 5 C-2 4.34 -2 3.68 -2 3 C-1.34 3 -0.68 3 0 3 C0 2.01 0 1.02 0 0 Z " fill="#AAC7E5" transform="translate(51,31)"/>
<path d="M0 0 C1.32 0 2.64 0 4 0 C4 4.62 4 9.24 4 14 C2.68 14 1.36 14 0 14 C0 9.38 0 4.76 0 0 Z " fill="#FFFFFF" transform="translate(156,112)"/>
<path d="M0 0 C1.65 0 3.3 0 5 0 C5.33 1.65 5.66 3.3 6 5 C4.35 5.33 2.7 5.66 1 6 C-0.0625 4.125 -0.0625 4.125 -1 2 C-0.67 1.34 -0.34 0.68 0 0 Z " fill="#36AE72" transform="translate(167,116)"/>
<path d="M0 0 C5.68748885 1.25124755 8.72847508 3.04102568 13 7 C11.02 7.99 11.02 7.99 9 9 C8.34 8.34 7.68 7.68 7 7 C7 6.34 7 5.68 7 5 C4.36 4.01 1.72 3.02 -1 2 C-0.67 1.34 -0.34 0.68 0 0 Z " fill="#F0F7F5" transform="translate(62,22)"/>
<path d="M0 0 C1.32 0 2.64 0 4 0 C4 1.65 4 3.3 4 5 C2.35 5 0.7 5 -1 5 C-1.33 4.01 -1.66 3.02 -2 2 C-1.34 1.34 -0.68 0.68 0 0 Z " fill="#36AE72" transform="translate(119,116)"/>
<path d="M0 0 C1.32 0.66 2.64 1.32 4 2 C4 2.66 4 3.32 4 4 C0.25 5.125 0.25 5.125 -2 4 C-1.34 2.68 -0.68 1.36 0 0 Z " fill="#F2F9F5" transform="translate(157,106)"/>
<path d="M0 0 C0.6875 1.6875 0.6875 1.6875 1 4 C-0.4375 6.75 -0.4375 6.75 -2 9 C-2.6875 7.3125 -2.6875 7.3125 -3 5 C-1.5625 2.25 -1.5625 2.25 0 0 Z " fill="#548ECB" transform="translate(78,50)"/>
<path d="M0 0 C0.99 0.66 1.98 1.32 3 2 C3 2.66 3 3.32 3 4 C1.68 4.33 0.36 4.66 -1 5 C-1.33 3.68 -1.66 2.36 -2 1 C-1.34 0.67 -0.68 0.34 0 0 Z " fill="#FDFEFD" transform="translate(109,106)"/>
</svg>
