<?xml version="1.0" encoding="UTF-8"?>
<svg version="1.1" xmlns="http://www.w3.org/2000/svg" width="224" height="148">
<path d="M0 0 C8.13441726 5.81029804 12.78953016 14.20913001 14.72265625 23.9453125 C16.25490523 36.3089767 13.03076827 46.18803513 5.5 55.9375 C-0.96267326 63.08132905 -9.39809942 66.7959562 -18.84765625 67.46484375 C-31.3605481 67.83071778 -40.53480612 64.90350653 -49.8125 56.25 C-58.19173608 45.64831421 -59.98211976 35.40743839 -58.8125 22.25 C-57.05521561 12.57903894 -51.31829316 5.70808883 -43.80078125 -0.37890625 C-29.90066633 -9.8242176 -13.91834843 -8.51858783 0 0 Z M-49.125 7.625 C-56.37944061 16.71320198 -57.7586891 25.79742548 -56.8125 37.25 C-55.80763608 40.77799386 -54.49342094 43.99321568 -52.8125 47.25 C-51.8225 47.25 -50.8325 47.25 -49.8125 47.25 C-49.8125 40.65 -49.8125 34.05 -49.8125 27.25 C-50.8025 27.25 -51.7925 27.25 -52.8125 27.25 C-52.8125 26.59 -52.8125 25.93 -52.8125 25.25 C-46.40620576 25.04147686 -40.88277358 25.0916805 -34.8125 27.25 C-34.125 30.0625 -34.125 30.0625 -33.8125 33.25 C-35.125 35 -35.125 35 -36.8125 36.25 C-37.4725 36.91 -38.1325 37.57 -38.8125 38.25 C-37.55215413 39.75882261 -36.27886351 41.25684044 -35 42.75 C-34.29230469 43.5853125 -33.58460937 44.420625 -32.85546875 45.28125 C-30.9253338 47.59695311 -30.9253338 47.59695311 -27.8125 47.25 C-27.8125 40.65 -27.8125 34.05 -27.8125 27.25 C-28.8025 27.25 -29.7925 27.25 -30.8125 27.25 C-30.8125 26.59 -30.8125 25.93 -30.8125 25.25 C-24.8725 25.25 -18.9325 25.25 -12.8125 25.25 C-12.3175 28.715 -12.3175 28.715 -11.8125 32.25 C-14.32333114 30.99458443 -14.68375446 29.74936512 -15.8125 27.25 C-18.1225 27.25 -20.4325 27.25 -22.8125 27.25 C-22.8125 33.85 -22.8125 40.45 -22.8125 47.25 C-18.18179011 48.60404492 -18.18179011 48.60404492 -15.26953125 47.41015625 C-11.57086107 44.15838422 -10.26225892 40.21185734 -8.5 35.6875 C-8.14099609 34.81158203 -7.78199219 33.93566406 -7.41210938 33.03320312 C-5.52065079 28.77048101 -5.52065079 28.77048101 -4.8125 24.25 C-4.1525 24.25 -3.4925 24.25 -2.8125 24.25 C-2.44125 25.44625 -2.07 26.6425 -1.6875 27.875 C0.50904521 34.50708093 3.37884431 40.86008106 6.1875 47.25 C9.4860139 46.52731765 9.4860139 46.52731765 10.875 43.1875 C13.82148094 34.48911211 13.63019083 22.83609182 9.62890625 14.5546875 C3.65829932 5.00818862 -4.31418924 -1.66695541 -15.41015625 -4.38671875 C-28.3987475 -6.35084718 -40.24299177 -2.12517445 -49.125 7.625 Z M-44.8125 26.25 C-44.8125 29.55 -44.8125 32.85 -44.8125 36.25 C-42.8325 35.92 -40.8525 35.59 -38.8125 35.25 C-37.95275199 32.95705512 -37.95275199 32.95705512 -37.8125 30.25 C-39.45869349 27.85371845 -39.45869349 27.85371845 -41.8125 26.25 C-42.8025 26.25 -43.7925 26.25 -44.8125 26.25 Z M-5.8125 31.25 C-6.65628975 33.30824429 -7.48713622 35.37179786 -8.3125 37.4375 C-8.7765625 38.58605469 -9.240625 39.73460937 -9.71875 40.91796875 C-10.73684329 44.01951723 -10.9080205 46.04767522 -10.8125 49.25 C-14.54279322 49.19800985 -18.27079136 49.10290558 -22 49 C-23.05509766 48.98582031 -24.11019531 48.97164062 -25.19726562 48.95703125 C-33.04852634 48.70935741 -33.04852634 48.70935741 -36.87890625 46.40625 C-37.51699219 45.6946875 -38.15507813 44.983125 -38.8125 44.25 C-39.32296875 43.68796875 -39.8334375 43.1259375 -40.359375 42.546875 C-40.75640625 42.03640625 -41.1534375 41.5259375 -41.5625 41 C-42.305 40.0925 -43.0475 39.185 -43.8125 38.25 C-44.1425 38.25 -44.4725 38.25 -44.8125 38.25 C-44.8125 41.88 -44.8125 45.51 -44.8125 49.25 C-46.7925 49.25 -48.7725 49.25 -50.8125 49.25 C-46.83230392 57.21039216 -39.95622658 61.31464569 -31.8125 64.25 C-22.83810545 66.94231837 -14.07187192 65.32962916 -5.8125 61.25 C-1.39970654 58.48089806 2.78731968 55.21687704 6.1875 51.25 C6.1875 50.59 6.1875 49.93 6.1875 49.25 C4.2075 48.92 2.2275 48.59 0.1875 48.25 C0.6825 46.765 0.6825 46.765 1.1875 45.25 C0.29054149 42.7725487 -0.65603162 40.44912249 -1.75 38.0625 C-2.04068359 37.40830078 -2.33136719 36.75410156 -2.63085938 36.08007812 C-3.34945343 34.46618656 -4.0798588 32.85756345 -4.8125 31.25 C-5.1425 31.25 -5.4725 31.25 -5.8125 31.25 Z " fill="#176739" transform="translate(134.8125,10.75)"/>
<path d="M0 0 C1.375 2.0625 1.375 2.0625 2 4 C2.66 3.67 3.32 3.34 4 3 C7 5 7 5 7.625 7.3125 C7.74875 8.199375 7.8725 9.08625 8 10 C8.185625 10.928125 8.37125 11.85625 8.5625 12.8125 C8.7790625 13.8953125 8.7790625 13.8953125 9 15 C7.68 15 6.36 15 5 15 C5.33 16.65 5.66 18.3 6 20 C2.37653931 22.41564046 -0.31603982 22.29781669 -4.5 22.25 C-5.17675781 22.25773437 -5.85351562 22.26546875 -6.55078125 22.2734375 C-10.24919257 22.25884811 -11.84603337 22.10264442 -15 20 C-14.67 18.35 -14.34 16.7 -14 15 C-15.32 15 -16.64 15 -18 15 C-17.67 13.35 -17.34 11.7 -17 10 C-16.34 10 -15.68 10 -15 10 C-15.33 8.35 -15.66 6.7 -16 5 C-14.68 4.34 -13.36 3.68 -12 3 C-11.34 3.66 -10.68 4.32 -10 5 C-9.67 3.35 -9.34 1.7 -9 0 C-5.44712603 -1.18429132 -3.58589143 -0.99184231 0 0 Z " fill="#BBB9B0" transform="translate(117,11)"/>
<path d="M0 0 C2.45898655 -0.08076963 4.91533742 -0.14037143 7.375 -0.1875 C8.07367188 -0.21263672 8.77234375 -0.23777344 9.4921875 -0.26367188 C11.5234375 -0.29296875 11.5234375 -0.29296875 15 0 C17.60483372 3.90725058 16.69205978 5.4631637 16 10 C16.36887653 13.30714584 16.36887653 13.30714584 17 16 C16.01 16 15.02 16 14 16 C13.67 15.34 13.34 14.68 13 14 C12.67 14.66 12.34 15.32 12 16 C10.68 16 9.36 16 8 16 C8 11.71 8 7.42 8 3 C7.01 3 6.02 3 5 3 C5 7.29 5 11.58 5 16 C4.01 16 3.02 16 2 16 C2 11.71 2 7.42 2 3 C1.34 3 0.68 3 0 3 C0 2.01 0 1.02 0 0 Z M12 3 C12.33 3.99 12.66 4.98 13 6 C13 5.01 13 4.02 13 3 C12.67 3 12.34 3 12 3 Z " fill="#176739" transform="translate(84,110)"/>
<path d="M0 0 C3.96 0 7.92 0 12 0 C12 3.96 12 7.92 12 12 C13.32 12 14.64 12 16 12 C16 13.32 16 14.64 16 16 C10.72 16 5.44 16 0 16 C0 10.72 0 5.44 0 0 Z M3 3 C3 3.99 3 4.98 3 6 C4.32 6 5.64 6 7 6 C7 6.99 7 7.98 7 9 C5.68 9 4.36 9 3 9 C3 9.99 3 10.98 3 12 C4.65 12 6.3 12 8 12 C8 9.03 8 6.06 8 3 C6.35 3 4.7 3 3 3 Z " fill="#176739" transform="translate(51,110)"/>
<path d="M0 0 C10.89 0 21.78 0 33 0 C33 1.65 33 3.3 33 5 C22.11 5 11.22 5 0 5 C0 3.35 0 1.7 0 0 Z " fill="#176739" transform="translate(96,88)"/>
<path d="M0 0 C10.89 0 21.78 0 33 0 C33 1.65 33 3.3 33 5 C22.11 5 11.22 5 0 5 C0 3.35 0 1.7 0 0 Z " fill="#176739" transform="translate(96,82)"/>
<path d="M0 0 C1.2684375 0.0309375 1.2684375 0.0309375 2.5625 0.0625 C3.2225 0.0625 3.8825 0.0625 4.5625 0.0625 C5.5525 0.0625 6.5425 0.0625 7.5625 0.0625 C7.8925 0.7225 8.2225 1.3825 8.5625 2.0625 C8.8925 1.4025 9.2225 0.7425 9.5625 0.0625 C10.5525 0.0625 11.5425 0.0625 12.5625 0.0625 C11.9025 5.3425 11.2425 10.6225 10.5625 16.0625 C9.5725 16.0625 8.5825 16.0625 7.5625 16.0625 C6.9025 12.7625 6.2425 9.4625 5.5625 6.0625 C3.9125 5.7325 2.2625 5.4025 0.5625 5.0625 C0.5625 6.7125 0.5625 8.3625 0.5625 10.0625 C1.8825 10.0625 3.2025 10.0625 4.5625 10.0625 C4.2325 11.7125 3.9025 13.3625 3.5625 15.0625 C-1.1875 16.1875 -1.1875 16.1875 -3.4375 15.0625 C-3.46435412 12.75006208 -3.48382841 10.4375373 -3.5 8.125 C-3.51160156 6.83722656 -3.52320313 5.54945312 -3.53515625 4.22265625 C-3.40736614 0.08736836 -3.40736614 0.08736836 0 0 Z " fill="#176739" transform="translate(210.4375,109.9375)"/>
<path d="M0 0 C0.556875 0.350625 1.11375 0.70125 1.6875 1.0625 C4.53886783 2.21845993 6.08517222 1.80967438 9 1 C8.67 2.32 8.34 3.64 8 5 C9.32 5.33 10.64 5.66 12 6 C12 6.66 12 7.32 12 8 C12.66 8 13.32 8 14 8 C13 11 13 11 11 12 C8.50746624 12.12419345 6.05509244 12.18515513 3.5625 12.1875 C2.88123047 12.19974609 2.19996094 12.21199219 1.49804688 12.22460938 C-2.22829809 12.23555848 -3.81991571 12.12005619 -7 10 C-7 9.34 -7 8.68 -7 8 C-5.1875 6.3125 -5.1875 6.3125 -3 5 C-2.01 5.33 -1.02 5.66 0 6 C0 4.02 0 2.04 0 0 Z " fill="#7E702C" transform="translate(109,21)"/>
<path d="M0 0 C1.32 0 2.64 0 4 0 C4.33 0.99 4.66 1.98 5 3 C5.33 2.01 5.66 1.02 6 0 C6.99 0 7.98 0 9 0 C9 5.28 9 10.56 9 16 C7.68 15.67 6.36 15.34 5 15 C4.67 14.01 4.34 13.02 4 12 C3.67 13.32 3.34 14.64 3 16 C2.01 16 1.02 16 0 16 C0 10.72 0 5.44 0 0 Z " fill="#176739" transform="translate(197,110)"/>
<path d="M0 0 C3.63 0 7.26 0 11 0 C11 5.28 11 10.56 11 16 C10.01 16 9.02 16 8 16 C8 11.71 8 7.42 8 3 C6.35 3 4.7 3 3 3 C3 3.99 3 4.98 3 6 C4.32 6 5.64 6 7 6 C7 6.99 7 7.98 7 9 C5.68 9 4.36 9 3 9 C3 11.31 3 13.62 3 16 C2.01 16 1.02 16 0 16 C0 10.72 0 5.44 0 0 Z " fill="#176739" transform="translate(106,110)"/>
<path d="M0 0 C1.32 0.33 2.64 0.66 4 1 C5.32 0.67 6.64 0.34 8 0 C8 5.28 8 10.56 8 16 C7.01 16 6.02 16 5 16 C4.67 15.01 4.34 14.02 4 13 C3.67 13.99 3.34 14.98 3 16 C2.01 16 1.02 16 0 16 C0 10.72 0 5.44 0 0 Z " fill="#176739" transform="translate(157,110)"/>
<path d="M0 0 C1.98 0 3.96 0 6 0 C8 2 8 2 8.1953125 5.2578125 C8.16050781 7.17207031 8.16050781 7.17207031 8.125 9.125 C8.10695313 10.40632813 8.08890625 11.68765625 8.0703125 13.0078125 C8.04710937 13.99523437 8.02390625 14.98265625 8 16 C7.01 16 6.02 16 5 16 C4.67 15.34 4.34 14.68 4 14 C3.67 14.66 3.34 15.32 3 16 C2.01 16 1.02 16 0 16 C0 10.72 0 5.44 0 0 Z M3 3 C3 3.99 3 4.98 3 6 C3.66 6 4.32 6 5 6 C4.67 5.01 4.34 4.02 4 3 C3.67 3 3.34 3 3 3 Z " fill="#176739" transform="translate(20,110)"/>
<path d="M0 0 C2.64 0 5.28 0 8 0 C8.02703381 1.93742341 8.04641125 3.87495479 8.0625 5.8125 C8.07410156 6.89144531 8.08570313 7.97039062 8.09765625 9.08203125 C8 12 8 12 7 15 C2.25 16.125 2.25 16.125 0 15 C0 10.05 0 5.1 0 0 Z " fill="#176739" transform="translate(11,110)"/>
<path d="M0 0 C1.4540625 0.0309375 1.4540625 0.0309375 2.9375 0.0625 C3.2675 1.7125 3.5975 3.3625 3.9375 5.0625 C2.9475 5.0625 1.9575 5.0625 0.9375 5.0625 C0.9375 4.4025 0.9375 3.7425 0.9375 3.0625 C0.2775 3.0625 -0.3825 3.0625 -1.0625 3.0625 C-1.0625 4.0525 -1.0625 5.0425 -1.0625 6.0625 C0.5875 6.0625 2.2375 6.0625 3.9375 6.0625 C4.1328125 12.1171875 4.1328125 12.1171875 3.9375 14.0625 C3.2775 14.7225 2.6175 15.3825 1.9375 16.0625 C-2.61805556 15.50694444 -2.61805556 15.50694444 -4.0625 14.0625 C-4.1614294 11.89769203 -4.192211 9.72956215 -4.1875 7.5625 C-4.19007813 6.3765625 -4.19265625 5.190625 -4.1953125 3.96875 C-4.01769192 0.08199371 -4.01769192 0.08199371 0 0 Z M-1.0625 9.0625 C-1.0625 10.0525 -1.0625 11.0425 -1.0625 12.0625 C-0.4025 12.0625 0.2575 12.0625 0.9375 12.0625 C0.9375 11.0725 0.9375 10.0825 0.9375 9.0625 C0.2775 9.0625 -0.3825 9.0625 -1.0625 9.0625 Z " fill="#176739" transform="translate(184.0625,109.9375)"/>
<path d="M0 0 C1.98 0 3.96 0 6 0 C8.60483372 3.90725058 7.69205978 5.4631637 7 10 C7.36887653 13.30714584 7.36887653 13.30714584 8 16 C7.01 16 6.02 16 5 16 C4.67 15.34 4.34 14.68 4 14 C3.67 14.66 3.34 15.32 3 16 C2.01 16 1.02 16 0 16 C0 10.72 0 5.44 0 0 Z M3 3 C3.33 3.99 3.66 4.98 4 6 C4 5.01 4 4.02 4 3 C3.67 3 3.34 3 3 3 Z " fill="#176739" transform="translate(2,110)"/>
<path d="M0 0 C3 0.125 3 0.125 4 1.125 C4.12537741 3.26807896 4.17574364 5.41578886 4.1875 7.5625 C4.20167969 8.73683594 4.21585938 9.91117188 4.23046875 11.12109375 C4 14.125 4 14.125 2 16.125 C-2.55555556 15.56944444 -2.55555556 15.56944444 -4 14.125 C-4.0989294 11.96019203 -4.129711 9.79206215 -4.125 7.625 C-4.12757813 6.4390625 -4.13015625 5.253125 -4.1328125 4.03125 C-3.95612165 0.1648384 -3.95612165 0.1648384 0 0 Z M-1 3.125 C-1 6.095 -1 9.065 -1 12.125 C-0.34 12.125 0.32 12.125 1 12.125 C1 9.155 1 6.185 1 3.125 C0.34 3.125 -0.32 3.125 -1 3.125 Z " fill="#176739" transform="translate(152,109.875)"/>
<path d="M0 0 C6.27 0 12.54 0 19 0 C19 1.65 19 3.3 19 5 C12.73 5 6.46 5 0 5 C0 3.35 0 1.7 0 0 Z " fill="#176739" transform="translate(103,94)"/>
<path d="M0 0 C1.32 0 2.64 0 4 0 C4.99 5.28 5.98 10.56 7 16 C5.68 15.67 4.36 15.34 3 15 C3 14.01 3 13.02 3 12 C2.34 12 1.68 12 1 12 C0.67 13.32 0.34 14.64 0 16 C-0.99 16 -1.98 16 -3 16 C-2.01 10.72 -1.02 5.44 0 0 Z " fill="#176739" transform="translate(173,110)"/>
<path d="M0 0 C0.99 0 1.98 0 3 0 C3.50588147 1.91512272 4.00448391 3.83216922 4.5 5.75 C4.7784375 6.81734375 5.056875 7.8846875 5.34375 8.984375 C6 12 6 12 6 16 C5.01 16 4.02 16 3 16 C2.67 14.68 2.34 13.36 2 12 C1.34 12 0.68 12 0 12 C0 13.32 0 14.64 0 16 C-0.99 16 -1.98 16 -3 16 C-2.57910004 10.39538469 -2.08386889 5.27913453 0 0 Z " fill="#176739" transform="translate(32,110)"/>
<path d="M0 0 C0.99 0 1.98 0 3 0 C3.50588147 1.91512272 4.00448391 3.83216922 4.5 5.75 C4.7784375 6.81734375 5.056875 7.8846875 5.34375 8.984375 C6 12 6 12 6 16 C5.01 16 4.02 16 3 16 C2.67 15.01 2.34 14.02 2 13 C1.34 12.67 0.68 12.34 0 12 C0 13.32 0 14.64 0 16 C-0.99 16 -1.98 16 -3 16 C-2.52013969 10.43109483 -1.70084819 5.32932432 0 0 Z " fill="#176739" transform="translate(130,110)"/>
<path d="M0 0 C2.31 0 4.62 0 7 0 C7 0.99 7 1.98 7 3 C5.68 3 4.36 3 3 3 C3 3.99 3 4.98 3 6 C4.32 6 5.64 6 7 6 C7 6.99 7 7.98 7 9 C5.68 9 4.36 9 3 9 C3 9.99 3 10.98 3 12 C4.32 12 5.64 12 7 12 C7 13.32 7 14.64 7 16 C4.69 16 2.38 16 0 16 C0 10.72 0 5.44 0 0 Z " fill="#176739" transform="translate(189,110)"/>
<path d="M0 0 C0.33 2.31 0.66 4.62 1 7 C0.34 7 -0.32 7 -1 7 C-1.33 7.99 -1.66 8.98 -2 10 C-2.99 10.33 -3.98 10.66 -5 11 C-5.268125 10.360625 -5.53625 9.72125 -5.8125 9.0625 C-6.88667752 6.66868314 -6.88667752 6.66868314 -10 6 C-9.67 4.02 -9.34 2.04 -9 0 C-5.52176885 -1.15941038 -3.54104422 -0.70820884 0 0 Z " fill="#60251F" transform="translate(117,11)"/>
<path d="M0 0 C2.31 0 4.62 0 7 0 C7 0.99 7 1.98 7 3 C5.68 3 4.36 3 3 3 C3 3.99 3 4.98 3 6 C3.99 6 4.98 6 6 6 C6 6.99 6 7.98 6 9 C5.01 9 4.02 9 3 9 C3 9.99 3 10.98 3 12 C4.32 12 5.64 12 7 12 C7 13.32 7 14.64 7 16 C4.69 16 2.38 16 0 16 C0 10.72 0 5.44 0 0 Z " fill="#176739" transform="translate(68,110)"/>
<path d="M0 0 C1.2065625 0.0309375 1.2065625 0.0309375 2.4375 0.0625 C2.7675 1.7125 3.0975 3.3625 3.4375 5.0625 C2.4475 5.0625 1.4575 5.0625 0.4375 5.0625 C0.4375 6.7125 0.4375 8.3625 0.4375 10.0625 C1.4275 10.0625 2.4175 10.0625 3.4375 10.0625 C3.4375 11.7125 3.4375 13.3625 3.4375 15.0625 C-1.3125 16.1875 -1.3125 16.1875 -3.5625 15.0625 C-3.58935412 12.75006208 -3.60882841 10.4375373 -3.625 8.125 C-3.63660156 6.83722656 -3.64820312 5.54945312 -3.66015625 4.22265625 C-3.53232863 0.08615436 -3.53232863 0.08615436 0 0 Z " fill="#176739" transform="translate(122.5625,109.9375)"/>
<path d="M0 0 C1.2065625 0.0309375 1.2065625 0.0309375 2.4375 0.0625 C2.7675 1.7125 3.0975 3.3625 3.4375 5.0625 C2.4475 5.0625 1.4575 5.0625 0.4375 5.0625 C0.4375 6.7125 0.4375 8.3625 0.4375 10.0625 C1.4275 10.0625 2.4175 10.0625 3.4375 10.0625 C3.4375 11.7125 3.4375 13.3625 3.4375 15.0625 C-1.3125 16.1875 -1.3125 16.1875 -3.5625 15.0625 C-3.58935412 12.75006208 -3.60882841 10.4375373 -3.625 8.125 C-3.63660156 6.83722656 -3.64820312 5.54945312 -3.66015625 4.22265625 C-3.53232863 0.08615436 -3.53232863 0.08615436 0 0 Z " fill="#176739" transform="translate(79.5625,109.9375)"/>
<path d="M0 0 C2.64 0 5.28 0 8 0 C8 0.99 8 1.98 8 3 C7.34 3 6.68 3 6 3 C6 7.29 6 11.58 6 16 C4.68 16 3.36 16 2 16 C2 11.71 2 7.42 2 3 C1.34 3 0.68 3 0 3 C0 2.01 0 1.02 0 0 Z " fill="#176739" transform="translate(135,110)"/>
<path d="M0 0 C0.99 0 1.98 0 3 0 C3 3.96 3 7.92 3 12 C4.32 12 5.64 12 7 12 C7 13.32 7 14.64 7 16 C4.69 16 2.38 16 0 16 C0 10.72 0 5.44 0 0 Z " fill="#176739" transform="translate(39,110)"/>
<path d="M0 0 C0.99 0 1.98 0 3 0 C3 5.28 3 10.56 3 16 C2.01 16 1.02 16 0 16 C0 10.72 0 5.44 0 0 Z " fill="#176739" transform="translate(144,110)"/>
<path d="M0 0 C0.99 0 1.98 0 3 0 C3 5.28 3 10.56 3 16 C2.01 16 1.02 16 0 16 C0 10.72 0 5.44 0 0 Z " fill="#176739" transform="translate(102,110)"/>
<path d="M0 0 C1.32 0 2.64 0 4 0 C3.67 1.32 3.34 2.64 3 4 C4.32 4.33 5.64 4.66 7 5 C7 5.66 7 6.32 7 7 C7.66 7 8.32 7 9 7 C8.67 7.66 8.34 8.32 8 9 C5.03 8.67 2.06 8.34 -1 8 C-1.04241723 5.66705225 -1.04092937 3.33297433 -1 1 C-0.67 0.67 -0.34 0.34 0 0 Z " fill="#43593F" transform="translate(114,22)"/>
<path d="M0 0 C1.9375 0.6875 1.9375 0.6875 4 2 C4.6875 4.3125 4.6875 4.3125 5 7 C5.185625 7.928125 5.37125 8.85625 5.5625 9.8125 C5.7790625 10.8953125 5.7790625 10.8953125 6 12 C4.68 12 3.36 12 2 12 C1.67 12.99 1.34 13.98 1 15 C-0.06671952 11.79984144 0.05154528 10.11455706 0.4375 6.8125 C0.53933594 5.91144531 0.64117187 5.01039062 0.74609375 4.08203125 C0.82988281 3.39496094 0.91367188 2.70789063 1 2 C0.34 1.67 -0.32 1.34 -1 1 C-0.67 0.67 -0.34 0.34 0 0 Z " fill="#96938C" transform="translate(120,14)"/>
<path d="M0 0 C0.99 0.66 1.98 1.32 3 2 C3.1875 5.625 3.1875 5.625 3 9 C-0.28696233 9.79953138 -1.71023192 10.09658936 -5 9 C-5.33 9.66 -5.66 10.32 -6 11 C-6.33 10.01 -6.66 9.02 -7 8 C-5.1875 6.4375 -5.1875 6.4375 -3 5 C-2.01 5.33 -1.02 5.66 0 6 C0 4.02 0 2.04 0 0 Z " fill="#384F33" transform="translate(109,21)"/>
<path d="M0 0 C0.66 0.66 1.32 1.32 2 2 C1.34 2 0.68 2 0 2 C0.33 5.96 0.66 9.92 1 14 C0.01 14.495 0.01 14.495 -1 15 C-1 14.01 -1 13.02 -1 12 C-2.32 12 -3.64 12 -5 12 C-4.67 10.35 -4.34 8.7 -4 7 C-3.34 7 -2.68 7 -2 7 C-2.33 5.35 -2.66 3.7 -3 2 C-2.01 1.34 -1.02 0.68 0 0 Z " fill="#94918A" transform="translate(104,14)"/>
<path d="M0 0 C0.33 0.99 0.66 1.98 1 3 C0.2575 3.28875 -0.485 3.5775 -1.25 3.875 C-3.56739797 4.82302644 -5.77917115 5.84845911 -8 7 C-7.67 4.69 -7.34 2.38 -7 0 C-3.89953913 -1.03348696 -2.94389782 -1.17755913 0 0 Z " fill="#67251F" transform="translate(115,11)"/>
<path d="M0 0 C2.33333333 0 4.66666667 0 7 0 C8 3 8 3 7 6 C5.35 6 3.7 6 2 6 C1.34 4.02 0.68 2.04 0 0 Z " fill="#176739" transform="translate(93,134)"/>
<path d="M0 0 C1.32 0 2.64 0 4 0 C4.33 1.65 4.66 3.3 5 5 C3.35 5.33 1.7 5.66 0 6 C-1.125 2.25 -1.125 2.25 0 0 Z M1 2 C2 4 2 4 2 4 Z " fill="#176739" transform="translate(45,134)"/>
<path d="M0 0 C2.475 0.495 2.475 0.495 5 1 C5 2.65 5 4.3 5 6 C3.35 6 1.7 6 0 6 C0 4.02 0 2.04 0 0 Z " fill="#176739" transform="translate(38,134)"/>
<path d="M0 0 C0.99 0 1.98 0 3 0 C2.88637738 1.4800841 2.75877092 2.95910074 2.625 4.4375 C2.52058594 5.67306641 2.52058594 5.67306641 2.4140625 6.93359375 C2.27742188 7.61550781 2.14078125 8.29742187 2 9 C1.01 9.495 1.01 9.495 0 10 C-1.125 2.25 -1.125 2.25 0 0 Z " fill="#D0CEC4" transform="translate(104,16)"/>
<path d="M0 0 C1.66666667 0 3.33333333 0 5 0 C5 1.98 5 3.96 5 6 C3.33333333 6 1.66666667 6 0 6 C0 4.02 0 2.04 0 0 Z " fill="#176739" transform="translate(26,134)"/>
<path d="M0 0 C1.66666667 0 3.33333333 0 5 0 C5 1.98 5 3.96 5 6 C3.33333333 6 1.66666667 6 0 6 C0 4.02 0 2.04 0 0 Z " fill="#176739" transform="translate(187,134)"/>
<path d="M0 0 C1.53445094 3.06890187 0.54984289 5.70094266 0 9 C-1.32 8.67 -2.64 8.34 -4 8 C-3.40138258 5.64828869 -2.73075648 3.3140622 -2 1 C-1.34 0.67 -0.68 0.34 0 0 Z " fill="#938F81" transform="translate(109,18)"/>
<path d="M0 0 C0.99 0 1.98 0 3 0 C3 3.3 3 6.6 3 10 C-0.00617269 6.99382731 0.40414684 4.17618402 0 0 Z " fill="#D4D2C8" transform="translate(118,16)"/>
<path d="M0 0 C1.66666667 0 3.33333333 0 5 0 C5 1.98 5 3.96 5 6 C4.01 5.67 3.02 5.34 2 5 C1.01 5.495 1.01 5.495 0 6 C0 4.02 0 2.04 0 0 Z " fill="#176739" transform="translate(74,134)"/>
<path d="M0 0 C1.32 0 2.64 0 4 0 C4 0.66 4 1.32 4 2 C3.01 2 2.02 2 1 2 C1 2.66 1 3.32 1 4 C1.99 4 2.98 4 4 4 C4 4.66 4 5.32 4 6 C2.35 5.67 0.7 5.34 -1 5 C-0.67 3.35 -0.34 1.7 0 0 Z " fill="#176739" transform="translate(195,134)"/>
<path d="M0 0 C1.65 0 3.3 0 5 0 C4.814375 0.61875 4.62875 1.2375 4.4375 1.875 C3.76313824 4.04160178 3.76313824 4.04160178 5 6 C3.35 6 1.7 6 0 6 C0 4.02 0 2.04 0 0 Z " fill="#176739" transform="translate(122,134)"/>
<path d="M0 0 C1.65 0 3.3 0 5 0 C4.814375 0.61875 4.62875 1.2375 4.4375 1.875 C3.76313824 4.04160178 3.76313824 4.04160178 5 6 C3.35 6 1.7 6 0 6 C0 4.02 0 2.04 0 0 Z " fill="#176739" transform="translate(32,134)"/>
<path d="M0 0 C0.99 0.33 1.98 0.66 3 1 C3.66 0.67 4.32 0.34 5 0 C5 1.98 5 3.96 5 6 C4.01 5.67 3.02 5.34 2 5 C1.01 5.495 1.01 5.495 0 6 C0 4.02 0 2.04 0 0 Z " fill="#176739" transform="translate(115,134)"/>
<path d="M0 0 C1.66666667 0 3.33333333 0 5 0 C5 1.98 5 3.96 5 6 C4.01 5.34 3.02 4.68 2 4 C1.34 4.66 0.68 5.32 0 6 C0 4.02 0 2.04 0 0 Z " fill="#176739" transform="translate(128,134)"/>
<path d="M0 0 C1.32 0.66 2.64 1.32 4 2 C3.625 4.4375 3.625 4.4375 3 7 C2.01 7.495 2.01 7.495 1 8 C1 6.02 1 4.04 1 2 C0.34 1.67 -0.32 1.34 -1 1 C-0.67 0.67 -0.34 0.34 0 0 Z " fill="#7E7A6C" transform="translate(120,14)"/>
<path d="M0 0 C1.32 0 2.64 0 4 0 C4 1.98 4 3.96 4 6 C2.66666667 6 1.33333333 6 0 6 C0 4.02 0 2.04 0 0 Z M1 1 C2 3 2 3 2 3 Z " fill="#176739" transform="translate(109,134)"/>
<path d="M0 0 C0 2.97 0 5.94 0 9 C-1.37562854 7.71034824 -2.70766393 6.37310707 -4 5 C-4 3 -4 3 -2.5625 1.375 C-1 0 -1 0 0 0 Z " fill="#176739" transform="translate(118,43)"/>
<path d="M0 0 C1.32 0.33 2.64 0.66 4 1 C4 2.65 4 4.3 4 6 C2.68 6 1.36 6 0 6 C0 4.02 0 2.04 0 0 Z " fill="#176739" transform="translate(182,134)"/>
<path d="M0 0 C1.32 0.33 2.64 0.66 4 1 C4 2.65 4 4.3 4 6 C2.68 6 1.36 6 0 6 C0 4.02 0 2.04 0 0 Z " fill="#176739" transform="translate(151,134)"/>
<path d="M0 0 C1.32 0.33 2.64 0.66 4 1 C4 2.65 4 4.3 4 6 C2.68 6 1.36 6 0 6 C0 4.02 0 2.04 0 0 Z " fill="#176739" transform="translate(103,134)"/>
<path d="M0 0 C1.32 0.33 2.64 0.66 4 1 C4 2.65 4 4.3 4 6 C2.68 6 1.36 6 0 6 C0 4.02 0 2.04 0 0 Z " fill="#176739" transform="translate(68,134)"/>
<path d="M0 0 C1.32 0.33 2.64 0.66 4 1 C4 2.65 4 4.3 4 6 C2.68 6 1.36 6 0 6 C0 4.02 0 2.04 0 0 Z " fill="#176739" transform="translate(20,134)"/>
<path d="M0 0 C4 0 4 0 6 1 C5.34 2.65 4.68 4.3 4 6 C3.34 6 2.68 6 2 6 C1.34 4.02 0.68 2.04 0 0 Z " fill="#176739" transform="translate(200,134)"/>
<path d="M0 0 C1.98 0.495 1.98 0.495 4 1 C3.67 2.65 3.34 4.3 3 6 C1.68 5.67 0.36 5.34 -1 5 C-0.67 3.35 -0.34 1.7 0 0 Z M1 1 C1 2.32 1 3.64 1 5 C1.66 4.67 2.32 4.34 3 4 C2.67 3.01 2.34 2.02 2 1 C1.67 1 1.34 1 1 1 Z " fill="#176739" transform="translate(88,134)"/>
<path d="M0 0 C1.98 0.495 1.98 0.495 4 1 C3.01 1.33 2.02 1.66 1 2 C1.33 2.66 1.66 3.32 2 4 C2.66 4 3.32 4 4 4 C4 4.66 4 5.32 4 6 C2.35 5.67 0.7 5.34 -1 5 C-0.67 3.35 -0.34 1.7 0 0 Z " fill="#176739" transform="translate(173,134)"/>
<path d="M0 0 C1.98 0 3.96 0 6 0 C5.67 0.99 5.34 1.98 5 3 C4.01 3.33 3.02 3.66 2 4 C1.34 2.68 0.68 1.36 0 0 Z " fill="#525548" transform="translate(110,18)"/>
<path d="M0 0 C0.66 0.66 1.32 1.32 2 2 C1.34 2 0.68 2 0 2 C0 3.98 0 5.96 0 8 C-0.66 7.67 -1.32 7.34 -2 7 C-2.625 4.4375 -2.625 4.4375 -3 2 C-2.01 1.34 -1.02 0.68 0 0 Z " fill="#797568" transform="translate(104,14)"/>
<path d="M0 0 C1.32 0.33 2.64 0.66 4 1 C4 1.99 4 2.98 4 4 C3.01 4 2.02 4 1 4 C0.67 4.66 0.34 5.32 0 6 C0 4.02 0 2.04 0 0 Z " fill="#176739" transform="translate(163,134)"/>
<path d="M0 0 C1.32 0.33 2.64 0.66 4 1 C4 1.99 4 2.98 4 4 C3.01 4 2.02 4 1 4 C0.67 4.66 0.34 5.32 0 6 C0 4.02 0 2.04 0 0 Z " fill="#176739" transform="translate(157,134)"/>
<path d="M0 0 C1.32 0 2.64 0 4 0 C4 1.32 4 2.64 4 4 C3.01 4 2.02 4 1 4 C0.67 4.66 0.34 5.32 0 6 C0 4.02 0 2.04 0 0 Z M1 1 C1 1.66 1 2.32 1 3 C1.66 2.67 2.32 2.34 3 2 C2.34 1.67 1.68 1.34 1 1 Z " fill="#176739" transform="translate(81,134)"/>
<path d="M0 0 C1.66666667 0 3.33333333 0 5 0 C4.34 1.98 3.68 3.96 3 6 C0 2.25 0 2.25 0 0 Z " fill="#176739" transform="translate(51,134)"/>
<path d="M0 0 C1.32 0.33 2.64 0.66 4 1 C3.67 2.65 3.34 4.3 3 6 C2.34 6 1.68 6 1 6 C0.67 4.02 0.34 2.04 0 0 Z " fill="#176739" transform="translate(135,134)"/>
<path d="M0 0 C0.66 0 1.32 0 2 0 C2 1.98 2 3.96 2 6 C1.34 6 0.68 6 0 6 C0 4.02 0 2.04 0 0 Z " fill="#176739" transform="translate(178,134)"/>
<path d="M0 0 C1.32 0.33 2.64 0.66 4 1 C2.68 1 1.36 1 0 1 C0 0.67 0 0.34 0 0 Z " fill="#176739" transform="translate(143,137)"/>
<path d="M0 0 C1.32 0.33 2.64 0.66 4 1 C2.68 1 1.36 1 0 1 C0 0.67 0 0.34 0 0 Z " fill="#176739" transform="translate(60,137)"/>
<path d="M0 0 C0.33 0 0.66 0 1 0 C1 1.98 1 3.96 1 6 C0.67 6 0.34 6 0 6 C0 4.02 0 2.04 0 0 Z " fill="#176739" transform="translate(169,134)"/>
<path d="M0 0 C4 1 4 1 4 1 Z " fill="#176739" transform="translate(143,135)"/>
<path d="M0 0 C4 1 4 1 4 1 Z " fill="#176739" transform="translate(60,135)"/>
</svg>
